<?xml version="1.0" encoding="UTF-8"?>
<!-- Generated by Pixelmator Pro 3.5.6 -->
<svg width="24" height="24" viewBox="0 0 24 24" xmlns="http://www.w3.org/2000/svg">
    <path id="Path" fill="none" stroke="#ffffff" stroke-width="1.5" stroke-linecap="round" stroke-linejoin="round" d="M 2 11 L 2 4.6 C 2 4.268631 2.26863 4 2.6 4 L 8.77805 4 C 8.92127 4 9.05977 4.051239 9.16852 4.144451 L 12.3315 6.855549 C 12.4402 6.948761 12.5787 7 12.722 7 L 21.4 7 C 21.7314 7 22 7.268631 22 7.6 L 22 11 M 2 11 L 2 19.4 C 2 19.7314 2.26863 20 2.6 20 L 21.4 20 C 21.7314 20 22 19.7314 22 19.4 L 22 11 M 2 11 L 22 11"/>
</svg>
