<?xml version="1.0" encoding="UTF-8"?>
<!-- Generated by Pixelmator Pro 3.5.6 -->
<svg width="24" height="24" viewBox="0 0 24 24" xmlns="http://www.w3.org/2000/svg">
    <path id="Path" fill="none" stroke="#ffffff" stroke-width="1.5" stroke-linecap="round" stroke-linejoin="round" d="M 12 15 C 13.6569 15 15 13.6569 15 12 C 15 10.3431 13.6569 9 12 9 C 10.3431 9 9 10.3431 9 12 C 9 13.6569 10.3431 15 12 15 Z"/>
    <path id="path1" fill="none" stroke="#ffffff" stroke-width="1.5" stroke-linecap="round" stroke-linejoin="round" d="M 19.6224 10.3954 L 18.5247 7.744801 L 20 6 L 18 4 L 16.2647 5.48295 L 13.5578 4.36974 L 12.9353 2 L 10.981 2 L 10.3491 4.401131 L 7.70441 5.515961 L 6 4 L 4 6 L 5.45337 7.788849 L 4.3725 10.4463 L 2 11 L 2 13 L 4.40111 13.6555 L 5.51575 16.2997 L 4 18 L 6 20 L 7.79116 18.5403 L 10.397 19.612301 L 11 22 L 13 22 L 13.6045 19.613199 L 16.2551 18.515499 C 16.696899 18.831301 18 20 18 20 L 20 18 L 18.5159 16.249399 L 19.613899 13.598 L 21.999901 12.9772 L 22 11 L 19.6224 10.3954 Z"/>
</svg>
